<?xml version="1.0" standalone="no"?>
<!DOCTYPE svg PUBLIC "-//W3C//DTD SVG 20010904//EN"
 "http://www.w3.org/TR/2001/REC-SVG-20010904/DTD/svg10.dtd">
<svg version="1.0" xmlns="http://www.w3.org/2000/svg"
 width="713.000000pt" height="1080.000000pt" viewBox="0 0 713.000000 1080.000000"
 preserveAspectRatio="xMidYMid meet">
<metadata>
Created by potrace 1.16, written by Peter Selinger 2001-2019
</metadata>
<g transform="translate(0.000000,1080.000000) scale(0.100000,-0.100000)"
fill="#000000" stroke="none">
<path d="M2 9918 c1 -570 4 -805 9 -663 12 392 10 372 25 270 l8 -50 8 60 c5
33 10 71 12 85 2 14 4 30 6 35 3 11 6 34 8 78 2 20 7 27 23 27 14 0 19 5 16
14 -8 20 44 62 86 70 33 6 37 5 37 -14 0 -17 6 -20 40 -20 30 0 40 4 40 16 0
10 -6 14 -15 11 -19 -8 -31 13 -14 24 20 13 29 11 29 -6 0 -11 11 -15 40 -15
29 0 40 4 40 15 0 11 11 15 40 15 36 0 40 3 40 25 0 18 -5 25 -20 25 -31 0
-24 14 15 33 20 9 38 24 41 32 4 8 13 15 21 15 8 0 33 10 55 22 28 16 38 27
35 40 -3 10 -1 18 4 18 5 0 9 -7 9 -15 0 -8 4 -15 9 -15 5 0 14 7 21 15 7 8
18 15 25 15 20 0 145 61 145 71 0 5 9 9 20 9 11 0 20 7 20 15 0 11 11 15 40
15 22 0 40 5 40 10 0 6 18 10 40 10 38 0 40 1 40 31 l0 32 50 -5 c66 -7 84 12
81 82 -2 39 1 50 14 50 10 0 15 -10 15 -30 0 -16 4 -30 10 -30 5 0 19 14 32
30 19 26 28 30 70 30 45 0 48 2 48 25 0 23 4 25 40 25 l40 0 0 48 0 48 -40 -4
c-25 -3 -40 0 -40 7 0 6 -6 11 -14 11 -9 0 -17 15 -21 40 l-7 40 -59 0 c-46 0
-59 3 -59 15 0 11 -11 15 -39 15 -22 0 -41 -4 -43 -9 -1 -5 -38 -12 -80 -16
l-78 -7 0 41 c0 31 -4 41 -16 41 -9 0 -14 5 -12 12 6 18 28 21 28 4 0 -12 10
-16 40 -16 22 0 40 4 40 9 0 5 36 12 80 16 44 4 80 11 80 16 0 5 18 9 40 9 29
0 40 4 40 15 0 13 -78 15 -640 15 l-640 0 2 -882z"/>
<path d="M1599 10723 c0 -43 -1 -97 -2 -121 l-2 -42 43 0 c31 0 42 4 42 15 0
11 11 15 40 15 22 0 40 5 40 10 0 6 33 10 80 10 64 0 80 3 80 15 0 11 11 15
40 15 l40 0 0 40 0 40 80 0 80 0 0 40 0 40 -280 0 -280 0 -1 -77z"/>
<path d="M4810 10793 c1 -22 30 -44 49 -38 17 5 21 2 21 -14 0 -18 6 -21 40
-21 28 0 40 -4 40 -14 0 -17 88 -28 108 -13 18 14 15 25 -10 31 -13 2 1 3 30
2 28 -2 52 0 52 4 0 4 14 13 30 20 18 8 30 20 30 31 0 18 -11 19 -195 19 -107
0 -195 -3 -195 -7z"/>
<path d="M6320 10774 c0 -24 3 -26 40 -22 33 3 40 0 40 -14 0 -14 8 -18 40
-18 38 0 40 -2 40 -30 0 -28 2 -30 40 -30 51 0 52 -17 3 -23 -21 -2 -3 -2 40
1 49 2 77 0 77 -6 0 -13 58 -72 71 -72 5 0 9 -16 9 -35 0 -19 3 -35 8 -36 4
-1 23 -2 43 -3 28 -2 44 -11 74 -44 20 -23 43 -42 51 -42 7 0 24 -11 38 -25
19 -18 36 -25 66 -25 28 0 40 -4 40 -14 0 -8 3 -16 8 -18 4 -1 24 -22 45 -46
l37 -42 0 285 0 285 -405 0 -405 0 0 -26z"/>
<path d="M2354 10499 c-10 -17 51 -69 81 -69 14 0 33 -9 42 -20 10 -11 23 -20
29 -20 6 0 23 -9 36 -20 14 -10 42 -20 62 -22 21 -1 36 -7 36 -15 0 -17 20
-16 44 2 14 11 24 12 40 3 32 -17 83 -26 97 -17 11 6 10 9 -4 15 -9 3 -17 11
-17 18 0 11 -57 47 -83 53 -89 20 -136 36 -180 61 -57 32 -170 51 -183 31z"/>
<path d="M3414 9767 c-3 -8 1 -27 8 -43 12 -29 15 -39 17 -61 1 -18 21 -16 21
2 0 8 6 15 14 15 9 0 12 -8 8 -25 -5 -31 5 -75 18 -75 15 0 50 -33 50 -47 0
-7 5 -13 10 -13 7 0 7 -6 2 -17 -10 -19 -5 -110 7 -131 4 -7 1 -43 -6 -79 -8
-37 -12 -72 -9 -79 3 -7 0 -15 -7 -17 -17 -6 3 -39 31 -52 12 -5 22 -13 22
-17 0 -5 24 -8 53 -8 52 0 53 -1 66 -36 7 -19 19 -38 27 -41 8 -3 14 -10 14
-15 0 -6 -7 -4 -16 3 -14 11 -18 10 -30 -6 -19 -25 0 -49 27 -34 17 9 19 6 19
-35 0 -25 -4 -48 -10 -51 -21 -13 -9 -27 18 -23 25 4 28 1 24 -19 -3 -14 3
-32 13 -43 17 -19 17 -20 -3 -20 -29 0 -28 -11 7 -44 23 -22 36 -27 55 -22 19
5 26 2 26 -8 0 -9 -6 -13 -15 -10 -11 5 -14 -3 -12 -40 2 -40 4 -44 23 -40 25
6 39 -28 23 -58 -7 -13 -6 -18 3 -18 8 0 43 -29 78 -65 36 -35 71 -65 78 -65
12 0 16 -12 13 -38 -1 -7 5 -15 14 -18 9 -4 26 -27 39 -53 13 -25 33 -54 45
-65 16 -14 18 -23 10 -37 -12 -23 2 -54 31 -69 11 -6 20 -17 20 -24 0 -8 6
-19 14 -26 8 -6 12 -18 10 -25 -6 -14 33 -41 44 -30 3 3 11 -13 17 -37 7 -32
15 -44 31 -46 18 -3 22 -10 21 -38 -1 -19 4 -39 11 -46 9 -9 12 -7 12 11 0 13
4 19 10 16 6 -4 8 -15 5 -25 -7 -22 5 -32 24 -21 23 15 51 -1 66 -35 8 -19 19
-34 24 -34 6 0 11 -7 11 -15 0 -8 5 -15 10 -15 6 0 10 -10 10 -23 0 -13 4 -27
10 -33 11 -11 53 -160 75 -264 15 -73 51 -160 65 -160 6 0 10 -7 10 -15 0 -20
17 -19 29 3 7 12 5 22 -9 37 -13 15 -19 38 -20 90 -4 103 -3 107 19 100 14 -4
23 0 30 13 12 23 5 32 -26 32 -28 0 -31 16 -4 25 16 5 17 11 9 58 -5 28 -14
54 -19 55 -5 2 -9 12 -9 22 0 10 -9 20 -20 23 -25 7 -26 27 -1 27 15 0 20 9
23 43 3 23 2 47 -2 52 -10 15 -32 96 -27 101 2 2 21 -2 43 -10 21 -8 31 -15
22 -15 -14 -1 -18 -10 -18 -41 0 -33 3 -40 20 -40 17 0 20 7 20 40 0 23 5 40
11 40 8 0 10 -17 6 -54 -5 -48 -3 -54 11 -49 14 5 15 3 5 -8 -17 -18 -16 -29
2 -29 8 0 20 -9 27 -20 7 -11 18 -20 25 -20 7 0 13 -4 13 -10 0 -5 6 -10 14
-10 50 0 62 -135 26 -300 -11 -52 -20 -112 -20 -132 0 -21 -4 -38 -8 -38 -4 0
-13 -20 -20 -45 -9 -35 -15 -43 -28 -38 -14 5 -16 2 -10 -18 11 -39 10 -102
-2 -126 -16 -29 -15 -73 3 -103 29 -51 35 -72 29 -111 -4 -21 -10 -39 -14 -39
-8 0 -90 161 -90 175 0 4 -9 20 -21 36 -11 16 -21 39 -22 51 -2 13 -13 45 -25
73 -17 37 -25 46 -32 35 -5 -9 -3 -27 7 -49 8 -20 19 -49 24 -66 4 -16 15 -52
24 -80 9 -27 26 -79 37 -115 11 -36 27 -72 34 -81 8 -8 14 -20 14 -25 0 -6 13
-22 28 -37 16 -15 35 -43 42 -62 8 -19 20 -35 27 -35 7 0 10 -6 7 -15 -4 -9 0
-15 10 -15 12 0 14 7 10 30 -7 31 -5 33 48 44 21 5 28 2 33 -13 3 -11 19 -25
34 -32 16 -7 37 -29 47 -48 11 -20 26 -41 34 -48 8 -7 11 -13 7 -13 -5 0 1
-12 12 -26 12 -15 21 -33 21 -40 0 -8 9 -14 20 -14 18 0 19 -2 8 -20 -14 -23
1 -57 22 -52 7 1 18 -5 25 -15 8 -10 18 -19 24 -19 6 -1 15 -2 21 -3 5 0 7 -8
3 -17 -5 -13 -2 -15 15 -9 15 4 22 2 22 -8 0 -7 15 -20 33 -28 17 -8 32 -21
33 -29 1 -8 2 -20 2 -26 1 -6 18 -18 37 -27 19 -9 35 -22 35 -28 0 -7 12 -23
26 -36 21 -19 25 -30 20 -54 -3 -16 -1 -29 4 -29 6 0 10 -11 10 -23 0 -19 -8
-26 -42 -37 -27 -9 -37 -15 -25 -18 21 -4 21 -11 1 -40 -10 -15 -14 -41 -13
-83 2 -42 -2 -63 -11 -69 -11 -7 -11 -11 1 -26 10 -13 11 -18 2 -21 -16 -6 16
-43 37 -43 19 0 97 75 105 101 4 11 11 19 16 19 6 0 7 4 4 10 -3 5 1 20 9 32
37 58 23 197 -23 230 -10 7 -21 25 -25 41 -3 15 -10 27 -15 27 -4 0 -25 17
-47 38 -21 20 -51 45 -66 55 -16 10 -28 25 -28 35 0 9 -34 51 -75 92 -41 41
-79 90 -86 108 -7 22 -23 39 -48 52 -21 10 -43 26 -50 34 -8 9 -20 16 -27 16
-10 0 -11 6 -4 26 14 36 13 44 -9 44 -14 0 -18 5 -14 20 3 11 1 20 -3 21 -47
3 -71 11 -81 25 -18 25 -8 30 21 10 14 -9 28 -16 31 -16 11 0 4 23 -14 49 -11
15 -25 49 -32 74 -10 41 -9 54 6 93 23 61 21 104 -9 192 -23 70 -24 76 -10
128 8 30 14 63 14 73 0 10 13 36 28 57 69 96 92 234 57 334 -8 23 -15 51 -15
61 0 32 -124 210 -192 276 -131 128 -148 140 -148 113 0 -14 -33 -13 -48 2
-14 14 2 48 24 48 21 0 9 40 -17 59 -10 7 -19 18 -19 24 0 14 -101 116 -132
133 -32 16 -98 84 -98 100 0 7 -20 34 -44 60 -43 49 -136 214 -149 267 -4 15
-12 27 -17 27 -5 0 -35 26 -67 58 -32 31 -87 77 -123 102 -35 25 -89 70 -120
100 -30 31 -74 64 -97 74 -24 11 -43 23 -43 28 0 4 -6 8 -13 8 -8 0 -21 17
-30 38 -40 94 -67 172 -67 193 0 39 -62 187 -92 220 -16 17 -36 42 -45 55 -8
13 -22 24 -30 24 -8 0 -29 11 -47 25 -38 29 -45 30 -52 12z"/>
<path d="M587 9004 c-3 -4 -17 -8 -29 -9 -37 -4 -38 -4 -38 -19 0 -8 11 -16
25 -18 14 -2 24 -6 23 -10 -2 -3 8 -18 22 -33 20 -21 22 -28 11 -35 -11 -6 -9
-13 12 -32 25 -23 27 -32 31 -137 3 -66 11 -124 20 -144 9 -21 16 -78 19 -163
3 -73 10 -141 17 -153 8 -16 9 -46 5 -97 -7 -71 -6 -74 14 -74 15 0 20 6 19
23 0 12 2 34 6 49 6 20 3 29 -11 36 -17 10 -17 12 -2 24 9 7 20 34 24 61 3 26
10 47 16 47 5 0 9 15 9 34 0 35 17 136 24 144 3 2 20 -2 40 -9 20 -7 38 -10
42 -7 3 4 10 26 15 49 13 58 -3 93 -57 125 -24 14 -44 32 -44 40 0 13 -39 94
-50 104 -3 3 -11 17 -17 33 -13 28 -47 37 -57 15 -5 -10 -7 -10 -12 0 -3 6
-10 10 -15 6 -5 -3 -9 4 -9 15 0 13 12 26 33 37 29 15 96 81 97 95 0 3 -11 4
-25 1 -14 -2 -25 -9 -25 -14 0 -6 -11 -7 -27 -3 -16 4 -37 9 -48 10 -11 2 -27
6 -36 9 -8 4 -18 4 -22 0z"/>
<path d="M4239 7469 c-33 -35 -40 -38 -75 -33 -41 6 -79 20 -104 40 -8 6 -25
15 -37 18 -20 7 -23 4 -23 -23 0 -25 -5 -32 -27 -38 -45 -13 -227 -9 -254 4
-13 7 -36 17 -51 23 -16 5 -28 16 -28 25 0 8 -4 15 -10 15 -16 0 -31 -38 -25
-62 5 -20 2 -23 -26 -25 -45 -3 -63 -23 -21 -23 25 0 32 -4 32 -19 0 -11 5
-23 10 -26 13 -8 13 -45 -1 -45 -6 0 -18 -7 -26 -16 -10 -9 -25 -13 -39 -10
-19 5 -23 2 -26 -21 -2 -20 -10 -29 -33 -35 -20 -5 -42 -23 -62 -52 -22 -31
-42 -48 -65 -54 -21 -5 -34 -16 -38 -30 -7 -31 -102 -141 -122 -141 -23 -1
-58 -62 -58 -100 0 -24 -6 -34 -22 -40 -20 -7 -16 -10 26 -16 32 -5 56 -4 68
4 10 6 23 11 29 11 7 0 37 21 67 47 58 50 95 73 117 73 7 0 29 14 50 30 21 17
44 30 51 30 18 0 84 46 101 70 18 26 49 42 98 51 41 8 110 -4 120 -21 11 -18
-61 -39 -118 -34 -60 6 -74 -3 -52 -32 14 -18 14 -18 15 4 0 12 3 22 8 22 11
0 9 -80 -3 -80 -17 -1 -47 -50 -41 -67 4 -8 2 -21 -4 -28 -7 -9 -7 -21 1 -39
12 -26 29 -35 29 -15 0 5 4 8 10 4 5 -3 0 -15 -11 -26 -19 -19 -59 -100 -59
-120 0 -18 35 -8 62 18 43 41 33 10 -13 -44 -40 -46 -53 -58 -120 -113 -16
-14 -39 -45 -51 -68 -12 -24 -27 -46 -35 -49 -20 -8 -16 -23 7 -23 11 0 20 -3
20 -7 -1 -11 -40 -39 -66 -47 -25 -8 -25 -49 0 -74 14 -14 18 -14 38 5 13 11
39 29 58 38 19 10 51 31 72 46 20 16 50 32 68 35 39 8 148 -23 160 -46 6 -12
28 -19 72 -24 42 -4 69 -13 82 -25 19 -20 19 -20 -5 -25 -13 -3 -31 -5 -39 -4
-22 2 -80 -22 -80 -34 0 -5 6 -8 13 -5 6 2 25 -2 40 -10 25 -12 27 -16 15 -30
-10 -12 -10 -17 -1 -20 9 -3 9 -10 0 -30 -10 -22 -8 -28 21 -53 43 -37 43 -62
0 -58 -25 2 -34 8 -36 26 -4 23 -10 26 -37 16 -17 -7 -45 -54 -45 -77 0 -7 25
-24 55 -38 30 -13 55 -29 55 -35 0 -7 9 -14 20 -17 13 -3 20 0 20 8 0 15 60
65 78 65 20 0 13 -21 -13 -46 -43 -39 -33 -49 49 -50 41 -1 79 -5 85 -9 19
-11 78 14 84 35 3 11 12 20 21 20 9 0 16 7 16 15 0 24 30 17 40 -10 11 -28 18
-30 55 -13 27 12 34 38 11 38 -26 0 -27 18 -6 59 24 48 26 71 5 71 -9 0 -14 8
-12 23 1 15 -3 22 -15 21 -10 -1 -18 9 -22 27 -7 34 1 59 19 59 27 0 65 41 65
70 0 30 -15 49 -22 28 -3 -8 -9 -8 -24 0 -18 10 -18 11 6 20 14 5 26 6 28 1 2
-5 13 -9 25 -9 16 0 18 3 8 9 -9 6 -10 11 -2 15 6 4 11 16 11 27 0 14 -7 19
-25 19 -17 0 -25 6 -25 17 0 14 -2 15 -17 1 -33 -28 -67 1 -78 65 -5 28 -14
41 -36 52 -16 9 -29 20 -29 25 0 5 26 14 58 20 31 6 67 13 79 16 13 2 30 16
40 30 16 26 16 27 -6 45 -30 24 -48 24 -56 -1 -9 -27 -36 -25 -82 5 -75 49
-75 50 -38 145 14 35 25 83 25 106 0 60 -26 154 -50 179 -28 30 -25 42 15 55
20 6 48 22 63 34 15 13 43 31 62 41 90 45 130 78 130 105 0 38 -42 77 -107 97
-45 14 -58 24 -71 50 -9 18 -18 32 -21 32 -3 -1 -22 -19 -42 -40z m-105 -640
c39 -18 41 -40 7 -71 -20 -18 -28 -33 -24 -47 4 -16 -1 -22 -23 -27 -16 -4
-63 -24 -105 -45 -41 -22 -84 -39 -94 -39 -28 0 -193 -82 -268 -133 -37 -26
-71 -47 -77 -47 -20 0 33 69 92 121 80 71 85 76 139 136 32 36 69 63 130 93
46 23 95 47 109 55 32 17 82 18 114 4z"/>
<path d="M5137 5674 c-3 -3 -36 -13 -74 -23 -67 -18 -101 -36 -175 -95 -36
-30 -109 -55 -160 -56 -33 0 -35 -13 -9 -41 13 -14 29 -20 49 -18 16 2 37 -3
47 -11 12 -10 18 -11 24 -2 4 6 23 18 44 27 20 8 37 19 37 24 0 13 111 83 150
94 42 13 234 17 252 6 11 -7 10 -12 0 -30 -11 -18 -11 -24 4 -40 9 -10 17 -32
18 -49 1 -16 4 -30 9 -30 4 0 7 -7 7 -15 0 -8 -4 -15 -10 -15 -5 0 -10 5 -10
11 0 8 -5 8 -15 -1 -8 -7 -15 -23 -15 -36 0 -17 -5 -22 -20 -21 -12 1 -20 8
-20 19 0 10 -4 18 -10 18 -19 0 -10 29 19 62 27 31 28 35 15 61 -17 31 -53 36
-78 11 -9 -8 -16 -11 -16 -5 0 6 -13 11 -30 11 -22 0 -28 -4 -24 -15 4 -8 17
-15 30 -15 28 0 33 -25 7 -34 -11 -5 -23 0 -33 13 -28 37 -140 46 -140 11 0
-5 -10 -12 -22 -16 -13 -4 -26 -12 -30 -17 -4 -6 -19 -12 -35 -12 -21 -1 -29
-7 -31 -23 -2 -12 -8 -22 -14 -22 -6 0 -8 -11 -6 -24 3 -15 0 -27 -8 -30 -23
-9 -16 -30 16 -51 33 -22 36 -50 6 -50 -17 0 -39 -26 -62 -72 -3 -6 -2 -19 4
-28 14 -26 3 -62 -24 -74 -13 -6 -24 -15 -24 -21 0 -5 -6 -10 -14 -10 -16 0
-31 -34 -21 -49 3 -5 1 -12 -4 -16 -15 -8 25 -45 49 -45 24 0 27 -28 5 -37 -9
-3 -24 2 -33 10 -11 10 -23 13 -31 8 -10 -7 -9 -9 3 -14 23 -9 21 -64 -3 -77
-22 -11 -106 -12 -134 -1 -17 6 -16 9 10 21 15 7 32 12 37 11 6 -1 20 0 33 4
l23 5 -22 25 c-11 13 -33 27 -48 30 -16 3 -35 14 -45 24 -10 12 -24 17 -37 13
-17 -4 -19 -2 -11 12 5 10 5 37 -1 71 -9 47 -13 55 -32 55 -25 0 -64 -43 -64
-71 0 -11 -9 -28 -20 -39 -11 -11 -17 -20 -13 -20 4 0 -5 -12 -18 -27 -14 -16
-30 -40 -37 -55 -6 -16 -17 -28 -23 -28 -8 0 -9 -11 -5 -32 5 -26 0 -42 -29
-85 -41 -62 -65 -69 -65 -19 0 61 13 126 25 126 13 0 79 72 100 110 46 83 105
205 105 219 0 8 19 71 42 138 39 114 41 124 25 141 -9 10 -25 18 -37 19 -16 1
-20 -4 -20 -27 0 -16 -4 -39 -9 -52 -5 -13 -21 -61 -36 -108 -15 -47 -31 -89
-35 -95 -4 -5 -15 -33 -24 -62 -9 -28 -35 -76 -56 -107 -22 -32 -40 -66 -40
-77 0 -11 -6 -22 -14 -25 -8 -3 -18 -19 -21 -35 -4 -18 -16 -34 -29 -39 -23
-8 -54 -65 -43 -77 4 -3 -3 -17 -13 -31 -11 -13 -20 -39 -20 -56 0 -40 -12
-58 -33 -50 -19 7 -21 1 -8 -24 5 -9 12 -25 15 -34 7 -24 35 -12 42 18 3 13
10 24 15 24 17 0 21 -27 9 -67 -6 -21 -17 -81 -25 -133 -9 -52 -29 -134 -46
-183 -33 -95 -33 -133 0 -103 18 16 35 66 92 261 23 78 40 119 60 140 130 139
117 130 204 144 44 6 99 21 122 33 45 22 167 28 185 10 15 -15 -55 -34 -114
-30 -48 3 -53 1 -56 -19 -3 -19 1 -23 22 -23 14 0 27 -4 31 -9 3 -6 55 -10
116 -9 61 1 114 -3 117 -8 4 -5 14 -9 22 -9 8 0 16 -10 18 -22 3 -19 -1 -23
-22 -23 -16 0 -26 -6 -26 -15 0 -8 -4 -15 -10 -15 -5 0 -7 6 -4 14 3 7 -3 17
-13 20 -14 6 -15 5 -6 -5 17 -17 -20 -89 -47 -89 -13 0 -18 5 -14 15 8 20 -10
19 -27 -1 -10 -12 -10 -20 -1 -34 9 -14 7 -21 -6 -33 -9 -8 -23 -12 -30 -10
-19 7 -45 -65 -38 -105 4 -28 2 -35 -14 -39 -11 -3 -20 -12 -20 -20 0 -10 7
-14 19 -10 26 6 31 -11 24 -71 -5 -44 -3 -52 27 -85 18 -20 27 -37 21 -37 -27
0 -7 -18 32 -29 23 -7 51 -18 61 -23 15 -8 22 -7 30 4 18 23 77 61 84 54 6 -7
10 -35 15 -106 2 -32 0 -35 -35 -43 -21 -5 -38 -15 -38 -22 0 -8 -10 -21 -21
-29 -18 -12 -20 -21 -15 -50 6 -29 4 -36 -9 -36 -12 0 -15 -6 -10 -21 7 -21 5
-22 -66 -17 -42 3 -85 1 -99 -5 -14 -6 -28 -11 -32 -12 -5 -2 -10 -4 -13 -5
-13 -7 -31 -5 -42 3 -9 6 -13 6 -13 -2 0 -6 -7 -11 -16 -11 -10 0 -14 6 -11
14 7 18 -18 42 -28 26 -3 -5 -4 -14 0 -19 11 -19 -28 -30 -56 -15 -27 14 -97
12 -121 -2 -7 -5 -27 -7 -44 -5 -25 2 -34 -2 -39 -18 -3 -12 -16 -22 -28 -23
-12 -1 -30 -2 -39 -3 -9 0 -20 -4 -24 -8 -4 -4 -17 -7 -28 -7 -12 0 -26 -8
-33 -19 -6 -10 -32 -23 -57 -30 -35 -8 -49 -18 -61 -41 -17 -33 -45 -40 -45
-12 0 23 -28 62 -44 62 -7 0 -23 -24 -37 -52 -20 -45 -32 -57 -74 -77 -30 -14
-70 -24 -100 -25 -27 0 -56 -5 -62 -9 -9 -6 -13 -1 -13 18 0 16 -4 24 -10 20
-6 -4 -8 -15 -5 -26 5 -14 0 -20 -19 -25 -14 -3 -29 -3 -35 0 -5 3 -12 0 -14
-6 -4 -8 -8 -4 -12 10 -5 13 -15 22 -27 22 -16 0 -19 -5 -14 -22 3 -13 6 -31
6 -40 0 -10 7 -18 15 -18 20 0 19 -13 -4 -34 -12 -11 -16 -25 -13 -41 3 -20 0
-25 -16 -25 -28 0 -34 -13 -22 -44 6 -16 6 -27 0 -31 -16 -10 -12 -35 11 -66
13 -19 19 -39 16 -55 -3 -18 0 -24 13 -24 19 0 50 -30 50 -48 0 -7 7 -12 15
-12 8 0 15 -5 15 -11 0 -6 -9 -9 -19 -6 -14 3 -18 1 -14 -10 3 -8 0 -13 -8
-11 -9 2 -14 -6 -14 -22 0 -14 5 -24 10 -23 6 1 10 -20 10 -48 0 -27 -5 -49
-10 -49 -11 0 -35 -55 -35 -77 0 -16 63 -29 68 -14 5 15 31 14 48 -3 16 -17
19 -46 4 -46 -5 0 -10 -4 -10 -10 0 -5 17 -11 38 -11 20 -1 28 -3 17 -6 -78
-17 -114 -43 -60 -43 14 0 25 -4 25 -9 0 -4 -31 -12 -70 -15 -38 -4 -72 -11
-75 -17 -4 -5 -17 -9 -31 -9 -14 0 -27 -7 -30 -15 -4 -8 -10 -15 -16 -15 -5 0
-16 -6 -24 -14 -17 -17 -19 -96 -2 -96 6 0 3 -8 -7 -20 -16 -18 -16 -20 -1
-26 9 -3 16 -12 16 -20 0 -8 6 -14 14 -14 7 0 16 -13 20 -30 3 -17 12 -30 20
-30 9 0 20 -9 26 -19 5 -11 23 -22 39 -26 16 -3 28 -11 28 -18 -1 -34 4 -46
17 -41 11 4 13 0 9 -15 -3 -13 -1 -21 7 -21 7 0 10 -8 7 -20 -3 -11 0 -20 6
-20 6 0 19 -7 29 -17 17 -15 18 -15 18 0 0 25 23 20 51 -10 28 -30 36 -73 14
-73 -10 0 -25 -20 -25 -35 0 -2 16 -3 36 -2 19 1 38 -4 42 -9 11 -16 40 -24
44 -12 4 11 14 2 65 -56 15 -18 15 -21 -11 -42 -28 -25 -52 -23 -59 4 -4 15
-5 15 -6 -1 -2 -29 -32 -67 -52 -67 -11 0 -19 5 -19 12 0 9 -3 9 -12 0 -7 -7
-25 -12 -40 -12 -21 0 -28 5 -28 20 0 16 -7 20 -32 20 -18 0 -44 -9 -58 -20
l-25 -20 31 0 c42 0 51 -30 18 -59 l-23 -20 -31 39 c-34 43 -55 52 -45 21 3
-11 1 -22 -5 -26 -6 -4 -15 -18 -20 -31 -9 -23 -40 -34 -40 -14 0 6 -13 10
-29 10 -20 0 -30 -6 -34 -20 -3 -11 -10 -20 -16 -20 -6 0 -11 9 -11 20 0 26
-26 26 -33 1 -7 -28 -46 -30 -95 -4 -58 31 -72 30 -72 -6 0 -23 -5 -30 -21
-33 -27 -4 -44 -30 -36 -52 7 -16 8 -16 24 -1 14 14 14 18 2 26 -11 7 -9 9 9
9 12 0 22 5 22 10 0 15 32 12 54 -5 17 -13 18 -15 3 -15 -21 0 -23 -36 -2 -57
16 -15 11 -38 -6 -28 -5 4 -9 -2 -9 -12 0 -14 9 -18 37 -20 21 -1 43 -9 49
-17 6 -9 16 -16 23 -16 6 0 11 -8 11 -19 0 -26 19 -39 70 -47 52 -8 70 -19 70
-45 0 -12 10 -21 25 -25 14 -3 23 -10 20 -14 -3 -5 1 -11 7 -13 22 -9 -65 4
-99 15 -18 5 -33 14 -33 19 0 6 -6 9 -12 8 -7 -2 -31 5 -53 15 -22 10 -64 21
-92 25 -29 4 -61 15 -71 24 -9 9 -38 19 -62 22 -42 6 -103 26 -142 46 -10 5
-27 9 -37 9 -11 0 -23 4 -26 10 -3 5 -21 10 -39 10 -19 0 -47 7 -62 15 -16 8
-42 15 -57 15 -15 0 -43 7 -63 15 -20 8 -48 12 -64 8 -20 -3 -43 2 -70 16 -22
11 -55 21 -73 21 -18 0 -38 5 -45 12 -14 14 -80 38 -107 38 -11 0 -45 7 -75
15 -30 9 -72 17 -92 18 -23 2 -43 10 -51 21 -12 16 -22 18 -65 12 -28 -3 -53
-2 -56 2 -6 11 -79 22 -186 28 -41 2 -89 6 -106 9 -37 6 -250 24 -359 29 -44
2 -131 9 -193 14 -63 6 -123 7 -135 3 -13 -5 -48 -3 -87 5 -36 8 -94 14 -130
14 -87 1 -130 9 -130 25 0 8 12 16 27 18 l28 4 -27 2 c-15 0 -33 -5 -41 -13
-13 -13 -47 -20 -89 -17 -34 2 -18 18 23 24 22 3 43 8 47 11 12 13 -19 30 -55
31 -31 2 -39 6 -41 23 -2 12 -10 22 -18 22 -7 0 -21 17 -30 38 -16 36 -16 36
-27 14 -6 -13 -16 -21 -24 -18 -7 3 -13 1 -13 -4 0 -6 -18 -10 -40 -10 -38 0
-40 2 -40 30 0 22 5 30 17 30 14 0 15 2 4 13 -11 9 -14 9 -18 0 -7 -18 -33
-16 -33 2 0 9 7 18 15 21 8 4 15 18 15 32 0 14 7 33 16 43 8 9 16 27 17 39 1
17 6 21 24 17 14 -3 23 1 23 8 0 7 16 22 35 34 19 11 35 27 35 34 0 19 53 73
90 92 17 9 33 22 36 30 3 8 14 17 24 20 10 3 35 28 56 55 20 26 42 46 49 44
17 -7 31 15 38 56 5 33 0 41 -54 100 -32 36 -59 68 -59 72 0 4 -6 8 -14 8 -7
0 -16 9 -19 19 -2 11 -15 21 -28 23 -23 3 -24 7 -26 77 -2 80 -9 91 -56 91
-15 0 -30 7 -33 15 -4 9 -19 15 -40 15 -24 0 -34 -5 -34 -15 0 -8 -4 -15 -10
-15 -5 0 -15 -11 -22 -24 -28 -51 -87 -106 -118 -108 -16 -1 -30 -6 -30 -10 0
-10 -78 -30 -89 -24 -5 3 -9 17 -9 31 0 25 -17 55 -33 55 -5 0 -9 -627 -9
-1425 l0 -1425 720 0 c656 0 720 1 720 16 0 11 6 15 20 11 12 -3 24 1 29 11 7
13 31 17 120 19 61 2 118 0 127 -5 8 -5 35 -6 60 -2 41 6 60 -2 32 -13 -8 -3
-6 -6 5 -6 9 -1 17 4 17 9 0 6 55 10 144 10 168 0 207 -6 204 -29 -3 -14 25
-16 276 -19 217 -2 281 1 287 10 7 10 74 12 306 9 164 -2 321 -5 348 -8 28 -2
875 -7 1883 -9 l1832 -6 0 516 c0 514 0 517 -20 506 -11 -6 -27 -22 -36 -35
-9 -14 -25 -25 -36 -25 -10 0 -29 -12 -41 -26 -21 -24 -27 -25 -122 -26 -89 0
-106 3 -157 27 -32 15 -64 25 -72 22 -10 -4 -13 -1 -10 8 4 8 -5 15 -26 20
-17 4 -43 13 -58 21 -15 8 -46 14 -69 14 -23 0 -43 5 -45 10 -2 6 -29 14 -61
17 -31 3 -57 10 -57 15 0 5 -9 7 -20 3 -10 -3 -28 -1 -40 5 -16 9 -20 8 -20
-5 0 -14 -3 -14 -32 1 -17 9 -40 17 -52 19 -48 5 -86 17 -86 27 0 5 -6 8 -12
5 -7 -3 -31 6 -53 18 -46 26 -70 32 -214 50 -57 7 -106 17 -110 22 -12 18 -85
63 -91 55 -7 -10 -48 -32 -59 -32 -5 0 -11 14 -15 31 -10 52 -152 169 -206
169 -15 0 -41 -7 -59 -16 -23 -12 -45 -14 -77 -9 -81 12 -146 57 -303 213
-117 115 -132 134 -157 197 -15 39 -33 74 -41 78 -7 4 -13 13 -13 19 0 5 -21
40 -48 77 -26 36 -58 87 -72 113 l-24 46 18 89 c23 115 15 157 -32 161 -24 2
-36 11 -47 32 -17 33 -20 106 -5 115 6 3 10 17 10 31 0 14 7 35 16 48 10 16
12 26 5 31 -6 3 -11 15 -11 26 0 16 7 19 48 19 47 0 50 1 67 40 10 22 15 43
12 47 -4 3 -2 12 3 19 6 6 15 37 20 69 5 31 24 93 42 138 25 65 43 93 85 133
29 28 53 54 53 58 0 15 69 108 118 160 66 70 100 94 159 111 29 9 69 33 100
60 52 46 119 133 109 143 -3 3 10 26 28 51 59 80 66 108 55 213 -13 121 -55
301 -85 360 -22 43 -25 64 -28 200 -3 84 -9 185 -15 223 -7 39 -14 104 -17
145 -5 67 -3 80 18 120 13 25 41 61 61 81 37 37 37 37 30 98 -3 35 -2 61 3 60
39 -7 56 39 55 153 0 130 4 174 17 191 11 12 8 16 -14 21 -15 4 -46 20 -68 36
-23 16 -54 32 -71 34 -76 12 -112 15 -118 10z m-29 -626 c18 -18 15 -56 -5
-67 -10 -5 -47 -16 -83 -25 -50 -13 -72 -25 -97 -53 -22 -24 -37 -33 -43 -27
-15 15 7 70 36 89 13 8 24 24 24 34 0 11 12 24 30 31 26 11 33 10 50 -5 16
-15 22 -15 35 -5 8 7 15 19 15 26 0 17 22 18 38 2z m-558 -1593 c0 -8 -4 -15
-10 -15 -5 0 -10 -20 -10 -44 0 -50 -16 -102 -39 -125 -9 -9 -33 -21 -54 -28
l-37 -11 0 34 c0 19 4 34 9 34 13 0 41 58 41 85 0 13 7 25 15 29 8 3 15 16 16
28 0 13 3 17 6 11 2 -7 11 -13 19 -13 8 0 11 6 8 15 -4 10 0 15 15 15 12 0 21
-6 21 -15z m-550 -166 c0 -5 6 -6 14 -3 9 3 22 -11 37 -43 16 -32 25 -42 27
-30 2 11 13 17 30 17 l27 -1 -25 -13 -25 -14 28 -13 c35 -16 34 -22 -5 -37
-27 -10 -30 -14 -18 -22 10 -6 11 -10 3 -10 -9 0 -13 -19 -13 -60 l0 -60 -40
0 c-33 0 -40 -3 -40 -20 0 -13 7 -20 20 -20 22 0 25 -7 10 -30 -8 -12 -10 -12
-15 2 -5 13 -13 14 -38 7 -46 -13 -57 -11 -57 9 -1 32 -17 -9 -23 -59 -5 -38
-3 -51 13 -69 24 -27 25 -31 6 -24 -16 6 -28 -31 -19 -64 3 -14 13 -22 26 -22
19 0 16 -14 -4 -16 -40 -6 -36 -8 21 -13 l65 -6 -40 -13 c-22 -7 -73 -15 -114
-19 -71 -6 -73 -5 -67 14 4 14 1 23 -9 27 -8 3 -15 12 -15 21 0 8 -4 15 -10
15 -5 0 -10 9 -10 20 0 11 -7 20 -15 20 -8 0 -20 9 -27 20 -8 12 -24 20 -43
21 -26 0 -27 2 -10 9 11 5 29 11 40 15 19 6 18 8 -8 31 -19 16 -23 24 -13 24
10 0 17 9 17 23 l2 22 4 -22 c3 -15 12 -23 24 -23 22 0 26 28 4 36 -8 4 -15
15 -15 26 0 17 6 19 58 17 l57 -3 11 54 c6 31 13 49 16 40 4 -8 7 4 7 27 1 24
-4 43 -11 45 -7 3 -13 26 -14 57 -1 42 2 54 18 62 25 13 55 3 63 -22 7 -22 25
-26 25 -5 0 8 10 22 22 30 17 12 18 16 6 16 -20 0 -44 26 -28 32 22 7 70 5 70
-3z m-2030 -1834 c0 -8 7 -15 15 -15 19 0 85 -32 85 -41 0 -3 -14 -12 -30 -19
l-30 -13 27 -15 c16 -8 40 -14 56 -13 18 1 27 -4 27 -14 0 -8 9 -24 19 -34 19
-19 19 -20 0 -33 -11 -7 -24 -31 -29 -53 -9 -35 -7 -42 10 -55 54 -40 65 -51
53 -56 -7 -3 -13 -11 -13 -19 0 -7 -17 -15 -37 -19 -56 -9 -123 -7 -123 3 0 5
-18 12 -40 16 -26 4 -41 13 -45 26 -4 10 -14 19 -24 19 -23 0 -44 65 -30 92 5
10 17 18 25 18 8 0 22 16 30 35 8 19 18 35 23 35 13 0 21 27 15 45 -4 8 -12
15 -20 15 -8 0 -14 5 -14 10 0 6 18 10 40 10 33 0 40 3 40 20 0 17 -7 20 -40
20 -28 0 -40 -4 -40 -14 0 -9 -7 -12 -20 -9 -11 3 -20 8 -20 12 1 13 38 49 56
54 32 8 34 8 34 -8z"/>
<path d="M336 4428 c4 -13 10 -25 14 -28 4 -3 10 -17 14 -32 3 -16 13 -28 21
-28 8 0 15 -6 15 -14 0 -29 63 -116 88 -123 14 -3 33 -13 42 -22 49 -44 73
-61 91 -61 10 0 19 -4 19 -10 0 -5 6 -10 13 -10 23 0 67 -25 67 -37 0 -16 12
-17 27 -2 16 16 53 -11 53 -38 0 -14 6 -23 15 -23 8 0 15 4 15 10 0 5 18 15
40 21 33 10 43 9 63 -4 17 -11 28 -12 42 -5 10 6 46 11 80 12 83 1 110 -23
120 -107 4 -31 11 -60 16 -63 15 -9 10 -61 -6 -68 -19 -7 -20 -52 -1 -63 20
-12 38 -107 26 -139 -13 -33 -11 -75 7 -149 28 -113 53 -146 97 -129 19 7 18
18 -4 124 -5 25 -17 92 -25 150 -9 58 -25 123 -35 144 -11 22 -17 43 -14 48 6
9 64 -41 64 -56 0 -5 13 -30 28 -55 15 -25 43 -91 61 -146 18 -55 39 -109 47
-120 8 -11 14 -32 14 -47 0 -26 -3 -28 -44 -28 -31 0 -46 -5 -50 -16 -7 -18 0
-34 15 -34 5 0 19 -9 31 -20 12 -11 32 -20 46 -20 13 0 32 -5 44 -11 24 -13
40 -1 15 12 -26 15 -20 32 16 49 53 25 54 65 3 148 -37 60 -156 294 -156 307
0 3 -12 23 -26 44 -20 31 -34 41 -65 46 -36 6 -39 9 -39 40 0 19 -5 37 -10 40
-6 4 -7 11 -4 17 5 8 5 54 0 211 -1 35 -20 35 -70 1 -37 -26 -60 -30 -186 -35
-20 -1 -59 10 -90 25 -30 14 -68 26 -85 26 -16 0 -48 11 -70 25 -22 13 -56 33
-77 44 -20 11 -46 34 -58 51 -12 16 -33 33 -46 36 -14 4 -40 19 -57 35 -17 16
-36 29 -42 29 -6 0 -28 16 -50 35 -47 41 -70 46 -59 13z"/>
<path d="M3577 3773 c-13 -13 -19 -14 -29 -5 -17 17 -48 15 -48 -3 0 -9 7 -15
17 -13 22 4 43 -60 23 -72 -7 -4 -10 -15 -7 -25 8 -19 27 -11 27 11 0 8 5 14
10 14 6 0 10 -6 8 -12 -1 -7 3 -22 9 -34 9 -16 19 -20 41 -16 29 4 29 5 36 79
3 41 3 79 0 84 -9 15 -69 10 -87 -8z"/>
</g>
</svg>
